<svg xmlns="http://www.w3.org/2000/svg" xmlns:xlink="http://www.w3.org/1999/xlink" viewBox="0 0 445.831 527.792">
  <defs>
    <style>
      .cls-1 {
        fill: url(#linear-gradient);
      }

      .cls-2 {
        fill: url(#radial-gradient);
      }

      .cls-3 {
        fill: url(#linear-gradient-2);
      }

      .cls-4 {
        fill: #fff;
      }

      .cls-5 {
        opacity: 0.5;
        fill: url(#linear-gradient-3);
      }

      .cls-6 {
        opacity: 0.3;
        fill: url(#linear-gradient-4);
      }

      .cls-7 {
        fill: #00400b;
      }
    </style>
    <linearGradient id="linear-gradient" y1="0.5" x2="1" y2="0.5" gradientUnits="objectBoundingBox">
      <stop offset="0" stop-color="#02e320"/>
      <stop offset="0.5" stop-color="#00400b"/>
      <stop offset="1" stop-color="#02e320"/>
    </linearGradient>
    <radialGradient id="radial-gradient" cx="1008.338" cy="334.387" r="38.233" gradientTransform="matrix(-0.831, 0.825, 1.954, 1.969, -24.876, -75.794)" gradientUnits="userSpaceOnUse">
      <stop offset="0" stop-color="#02e320"/>
      <stop offset="0.484" stop-color="#008c14"/>
      <stop offset="0.832" stop-color="#00550d"/>
      <stop offset="1" stop-color="#00400b"/>
    </radialGradient>
    <linearGradient id="linear-gradient-2" x1="0.123" y1="0.172" x2="0.877" y2="0.828" xlink:href="#linear-gradient"/>
    <linearGradient id="linear-gradient-3" x1="0.036" y1="0.406" x2="0.871" y2="0.607" gradientUnits="objectBoundingBox">
      <stop offset="0" stop-color="#00400b" stop-opacity="0"/>
      <stop offset="0.09" stop-color="#064411" stop-opacity="0.024"/>
      <stop offset="0.217" stop-color="#185222" stop-opacity="0.098"/>
      <stop offset="0.365" stop-color="#36683f" stop-opacity="0.216"/>
      <stop offset="0.529" stop-color="#608867" stop-opacity="0.376"/>
      <stop offset="0.706" stop-color="#95b09a" stop-opacity="0.588"/>
      <stop offset="0.891" stop-color="#d5e0d7" stop-opacity="0.839"/>
      <stop offset="1" stop-color="#fff"/>
    </linearGradient>
    <linearGradient id="linear-gradient-4" x1="0.288" y1="0.9" x2="0.747" y2="0.256" gradientUnits="objectBoundingBox">
      <stop offset="0" stop-color="#00400b" stop-opacity="0"/>
      <stop offset="1" stop-color="#1abd2f"/>
    </linearGradient>
  </defs>
  <g id="Group_20" data-name="Group 20" transform="translate(-825.58 -287.151)">
    <path id="Path_3" data-name="Path 3" class="cls-1" d="M1238.407,550.281c-11.079,30.782-24.744,59.136-32.344,91.19-13.967,58.939-79.193,72.59-99.119,72.59-8.571,0-16.9-2.3-25.174-4.255A113.7,113.7,0,0,0,1055.861,707a106.745,106.745,0,0,0-25.087,2.678c-8.123,1.9-16.263,4.189-24.659,4.361-.336.007-.671.01-1.007.01-19.926,0-85.152-13.651-99.118-72.59-11.63-49.053-37.477-89.47-46.521-143.145q-.708-4.173-1.142-8.414a128.087,128.087,0,0,1-.722-13.455c0-42.359,21.882-83.957,83.144-93.3a107.359,107.359,0,0,1,16.224-1.195c42.767,0,82.645,23.182,91.506,23.182,8.545,0,48.686-23.182,91.492-23.182a107.531,107.531,0,0,1,16.237,1.195c57.521,8.755,80.322,45.943,82.908,85.506.748,11.486.721,21.239-10.79,21.239l-19.664.013a10.1,10.1,0,0,1-10.042-10.527c.486-14.269-2.678-26.936-9.123-35.849-7.626-10.554-20.9-17.327-39.419-20.149a67.127,67.127,0,0,0-10.107-.735c-21.922,0-45.182,9.109-60.579,15.122-11.959,4.686-20.609,8.059-30.913,8.059-10.436,0-19.218-3.426-31.373-8.177-15.292-5.973-38.408-15-60.133-15a66.65,66.65,0,0,0-10.081.735c-17.891,2.73-30.874,9.136-38.579,19.033C900.03,453.04,898.3,466.783,898.3,476.444a89.922,89.922,0,0,0,1.037,13.455c.078.552.17,1.1.262,1.654,4.306,25.571,13.389,48.463,23.011,72.695,8.427,21.213,17.13,43.147,22.985,67.825,3.229,13.651,11.945,24.035,26.633,31.753,13.586,7.128,28.275,9.53,32.882,9.53,2.652,0,7.679-1.208,12.523-2.376a162.537,162.537,0,0,1,19.939-3.915,154.1,154.1,0,0,1,43.572,1.032c2.331.414,4.65.893,6.961,1.41,1.934.433,4.347,1.486,6.319,1.486,4.843,1.169,9.871,2.376,12.522,2.376,4.608,0,19.3-2.4,32.882-9.53,14.689-7.718,23.4-18.1,26.634-31.753,5.264-22.184,12.825-42.149,20.425-61.353H1116.71V530.316s105.42,0,105.42.013h2.31A14.877,14.877,0,0,1,1238.407,550.281Z"/>
    <path id="Path_4" data-name="Path 4" class="cls-2" d="M1043.291,381.4c6.46-2.547,10.524-31.292-8.6-57.2s-53.031-39.652-60.665-36.638c-8.018,3.175-10.52,31.3,8.609,57.216s55.378,38.715,60.661,36.627Zm0,0"/>
    <g id="Group_3" data-name="Group 3">
      <path id="Path_11" data-name="Path 11" class="cls-3" d="M1144.389,551.493a90.951,90.951,0,1,1-44.472-78.135,91.831,91.831,0,0,1,23.012,19.546A90.441,90.441,0,0,1,1144.389,551.493Z"/>
    </g>
    <g id="Group_4" data-name="Group 4">
      <path id="Path_12" data-name="Path 12" class="cls-4" d="M1058.6,517.726h-44.006v67.535H1058.6a33.767,33.767,0,1,0,0-67.535Zm15.927,51.091a24.7,24.7,0,0,1-17.323,7.188h-31.958V526.982H1057.2a24.5,24.5,0,0,1,17.323,41.835Z"/>
    </g>
    <path id="Path_13" data-name="Path 13" class="cls-5" d="M1104.488,476.277a367.967,367.967,0,0,1-56.023,76.406A347.267,347.267,0,0,1,981.5,607.032a90.9,90.9,0,0,1,118.419-133.674A10.219,10.219,0,0,1,1104.488,476.277Z"/>
    <path id="Path_14" data-name="Path 14" class="cls-6" d="M1097.849,630.819A90.87,90.87,0,0,1,995.2,481.786c25.648,26.011,52.59,56.314,72.655,86.41C1082.284,589.708,1093.246,611.117,1097.849,630.819Z"/>
    <g id="Group_14" data-name="Group 14">
      <path id="Path_33" data-name="Path 33" class="cls-7" d="M851.788,748.269a25.394,25.394,0,0,1,18.533,7.593,25.739,25.739,0,0,1,0,36.671,25.391,25.391,0,0,1-18.533,7.594H825.58V748.269Zm0,44.449a18.136,18.136,0,0,0,13.235-5.426,18.373,18.373,0,0,0,0-26.189,18.139,18.139,0,0,0-13.235-5.425h-18.72v37.04Z"/>
      <path id="Path_34" data-name="Path 34" class="cls-7" d="M930.411,781.606v14.817a17.749,17.749,0,0,1-5.485,13.094,18.132,18.132,0,0,1-13.235,5.426v-7.408a10.876,10.876,0,0,0,7.937-3.259,10.61,10.61,0,0,0,3.295-7.817,18.931,18.931,0,0,1-24.467-1.759,18.374,18.374,0,0,1,0-26.188,18.854,18.854,0,0,1,26.47,0A17.749,17.749,0,0,1,930.411,781.606Zm-29.951,0a10.647,10.647,0,0,0,3.294,7.853,11.294,11.294,0,0,0,15.874,0,11.006,11.006,0,0,0,0-15.706,11.294,11.294,0,0,0-15.874,0A10.65,10.65,0,0,0,900.46,781.606Z"/>
      <path id="Path_35" data-name="Path 35" class="cls-7" d="M945.387,748.269h7.488v14.817h11.232v7.408H952.875v11.112a10.644,10.644,0,0,0,3.295,7.853,10.876,10.876,0,0,0,7.937,3.259v7.409a18.131,18.131,0,0,1-13.235-5.427,17.747,17.747,0,0,1-5.485-13.094Z"/>
      <path id="Path_36" data-name="Path 36" class="cls-7" d="M997.8,796.459a18.93,18.93,0,0,1-24.466-1.759,18.372,18.372,0,0,1,0-26.188,18.853,18.853,0,0,1,26.469,0,17.749,17.749,0,0,1,5.485,13.094v18.521H997.8ZM986.57,770.494a10.872,10.872,0,0,0-7.936,3.259,11.006,11.006,0,0,0,0,15.706,11.293,11.293,0,0,0,15.873,0,11.006,11.006,0,0,0,0-15.706A10.876,10.876,0,0,0,986.57,770.494Z"/>
      <path id="Path_37" data-name="Path 37" class="cls-7" d="M1016.523,800.127h-7.488V748.269h7.488Z"/>
      <path id="Path_38" data-name="Path 38" class="cls-7" d="M1091.7,800.127h-26.208a25.392,25.392,0,0,1-18.533-7.594,25.739,25.739,0,0,1,0-36.671,25.4,25.4,0,0,1,18.533-7.593H1091.7v7.409h-26.208a18.139,18.139,0,0,0-13.235,5.425,18.373,18.373,0,0,0,0,26.189,18.136,18.136,0,0,0,13.235,5.426h18.72V777.9h-18.72v-7.408H1091.7Z"/>
      <path id="Path_39" data-name="Path 39" class="cls-7" d="M1102.933,781.606v18.521h-7.488V781.606a17.744,17.744,0,0,1,5.485-13.094,18.129,18.129,0,0,1,13.234-5.426v7.408a10.872,10.872,0,0,0-7.936,3.259A10.647,10.647,0,0,0,1102.933,781.606Z"/>
      <path id="Path_40" data-name="Path 40" class="cls-7" d="M1147.86,796.459a18.93,18.93,0,0,1-24.466-1.759,18.372,18.372,0,0,1,0-26.188,18.853,18.853,0,0,1,26.469,0,17.749,17.749,0,0,1,5.485,13.094v18.521h-7.488Zm-11.231-25.965a10.873,10.873,0,0,0-7.937,3.259,11.005,11.005,0,0,0,0,15.706,11.293,11.293,0,0,0,15.873,0,11.005,11.005,0,0,0,0-15.706A10.875,10.875,0,0,0,1136.629,770.494Z"/>
      <path id="Path_41" data-name="Path 41" class="cls-7" d="M1169.875,785.755a47.778,47.778,0,0,0,7.937,6.223,47.864,47.864,0,0,0,7.937-6.223,10.648,10.648,0,0,0,3.295-7.853V763.086h7.488V777.9A17.751,17.751,0,0,1,1191.047,791a48.13,48.13,0,0,1-13.235,9.131A48.1,48.1,0,0,1,1164.577,791a17.747,17.747,0,0,1-5.485-13.094V763.086h7.488V777.9A10.644,10.644,0,0,0,1169.875,785.755Z"/>
      <path id="Path_42" data-name="Path 42" class="cls-7" d="M1211.508,748.269H1219v14.817h11.231v7.408H1219v11.112a10.644,10.644,0,0,0,3.3,7.853,10.872,10.872,0,0,0,7.936,3.259v7.409a18.131,18.131,0,0,1-13.234-5.427,17.747,17.747,0,0,1-5.485-13.094Z"/>
      <path id="Path_43" data-name="Path 43" class="cls-7" d="M1271.411,796.423a17.752,17.752,0,0,1-5.485,13.094,18.132,18.132,0,0,1-13.235,5.426v-7.408a10.878,10.878,0,0,0,7.937-3.259,10.61,10.61,0,0,0,3.295-7.817,18.931,18.931,0,0,1-24.467-1.759,17.747,17.747,0,0,1-5.485-13.094v-18.52h7.488v18.52a10.644,10.644,0,0,0,3.3,7.853,11.294,11.294,0,0,0,15.874,0,10.648,10.648,0,0,0,3.295-7.853v-18.52h7.488Z"/>
      <g id="Group_11" data-name="Group 11">
        <rect id="Rectangle_8" data-name="Rectangle 8" class="cls-7" width="7.488" height="37.041" transform="translate(934.155 763.086)"/>
        <path id="Path_44" data-name="Path 44" class="cls-7" d="M938.053,755.649c.747-.336,1.216-4.133-.994-7.556s-6.129-5.238-7.012-4.84c-.926.42-1.216,4.134.995,7.558s6.4,5.114,7.011,4.838Zm0,0"/>
      </g>
      <g id="Group_12" data-name="Group 12">
        <rect id="Rectangle_9" data-name="Rectangle 9" class="cls-7" width="7.488" height="37.041" transform="translate(881.74 763.086)"/>
        <path id="Path_45" data-name="Path 45" class="cls-7" d="M885.638,755.649c.746-.336,1.216-4.133-.995-7.556s-6.129-5.238-7.011-4.84c-.927.42-1.216,4.134.995,7.558s6.4,5.114,7.011,4.838Zm0,0"/>
      </g>
      <g id="Group_13" data-name="Group 13">
        <rect id="Rectangle_10" data-name="Rectangle 10" class="cls-7" width="7.488" height="37.041" transform="translate(1200.276 763.086)"/>
        <path id="Path_46" data-name="Path 46" class="cls-7" d="M1204.174,755.649c.746-.336,1.216-4.133-.995-7.556s-6.129-5.238-7.011-4.84c-.927.42-1.216,4.134.995,7.558s6.4,5.114,7.011,4.838Zm0,0"/>
      </g>
    </g>
  </g>
</svg>
