<svg xmlns="http://www.w3.org/2000/svg" viewBox="0 0 1389.554 345.534"><defs><style>.a,.c{fill:#3fab81;}.b{fill:#fff;}.b,.c{fill-rule:evenodd;}.d{fill:#707070;}</style></defs><g transform="translate(-43 13)"><g transform="translate(43 -13)"><path class="a" d="M288.25,69.058,179.62,6.338a47.35,47.35,0,0,0-47.33,0L23.67,69.058A47.32,47.32,0,0,0,0,110.048v125.43a47.33,47.33,0,0,0,23.67,41l108.62,62.71a47.3,47.3,0,0,0,47.33,0l108.63-62.71a47.34,47.34,0,0,0,23.66-41V110.048A47.33,47.33,0,0,0,288.25,69.058Z"/><path class="b" d="M259,251.906q-15.75,0-22.57-7.172t-6.82-21.094V163.734q0-19.266-7.734-27.914T201.2,127.172q-11.813,0-19.055,8.086t-7.242,24.258v92.391H164.5q-12.938,0-20.531-7.172t-7.594-21.094V163.734q0-19.266-7.945-27.914t-20.883-8.648a23.823,23.823,0,0,0-18.7,8.508q-7.453,8.508-7.453,24.68v91.547H70.984q-12.094,0-20.039-7.312T43,223.641V163.453A92.84,92.84,0,0,1,47.219,134.7a59.94,59.94,0,0,1,12.8-22.359A55.943,55.943,0,0,1,81.6,97.992Q94.609,93,112.188,93a55.291,55.291,0,0,1,27,6.469,62.913,62.913,0,0,1,20.25,17.719A48.618,48.618,0,0,1,178,99.609,52.882,52.882,0,0,1,204.016,93a77.379,77.379,0,0,1,25.031,4.008,56.152,56.152,0,0,1,20.6,12.234,57.622,57.622,0,0,1,13.852,20.6q5.063,12.375,5.063,28.688v93.375Z"/><path class="c" d="M441.906,220.172q-10.969,25.735-19.617,41.977t-16.8,25.453q-8.156,9.211-16.664,12.8a48.237,48.237,0,0,1-18.914,3.586,29.584,29.584,0,0,1-19.055-6.469q-8.086-6.469-8.086-17.437v-7.453l21.938-1.406a28.462,28.462,0,0,0,8.93-1.758,18.968,18.968,0,0,0,6.75-4.641,36.672,36.672,0,0,0,5.766-8.437,136.189,136.189,0,0,0,5.977-13.711q-7.875-11.531-16.664-30.375T358.8,172.57q-7.875-20.883-13.781-40.781A260.87,260.87,0,0,1,337,98.109h20.531a23.33,23.33,0,0,1,14.484,4.922,20.8,20.8,0,0,1,8.016,13.219,282.529,282.529,0,0,0,12.164,45.7,350.246,350.246,0,0,0,18.914,43.875q4.641-10.969,9.492-24.609t9.07-28.2q4.219-14.555,7.242-28.828t4.43-26.086h16.734q9.141,0,13.641,4.359t4.5,13.781a56.674,56.674,0,0,1-2.039,12.3q-2.039,8.227-5.2,18.281t-7.172,21.3q-4.008,11.25-7.8,21.445t-7.1,18.422Q443.594,216.234,441.906,220.172Zm195.652-27.562a69,69,0,0,1-4.852,26.438,54.65,54.65,0,0,1-14.414,20.32,66.586,66.586,0,0,1-23.344,13.148q-13.781,4.641-31.641,4.641-29.953,0-45.07-10.687T503.121,218.2V200.625h.844a95.44,95.44,0,0,0,23.484,15.188Q540.809,222,558.949,222q22.219,0,30.727-7.1t8.508-18.914a24.365,24.365,0,0,0-1.477-8.859q-1.477-3.8-6.328-7.1t-14.273-6.187q-9.422-2.883-24.891-6.258-25.313-5.484-38.883-18t-13.57-32.766a58.869,58.869,0,0,1,5.063-23.906,62.234,62.234,0,0,1,14.555-20.461,69.868,69.868,0,0,1,23.344-14.2,86.581,86.581,0,0,1,31.008-5.273q17.3,0,28.688,3.3T619.7,64.711a28.407,28.407,0,0,1,9.633,11.672,32.492,32.492,0,0,1,2.742,12.586v18.141h-1.125Q612.808,87.7,579.762,87.7q-23.063,0-32.414,6.961A21.93,21.93,0,0,0,538,113.156a17.177,17.177,0,0,0,1.969,8.016q1.969,3.8,7.172,6.961a67.936,67.936,0,0,0,14.133,6.047,217.541,217.541,0,0,0,22.711,5.7q27.141,5.766,40.359,19.336T637.558,192.609Zm131.668-42.328q0-11.813-7.945-17.578t-21.445-5.766a30.012,30.012,0,0,0-12.8,2.742,34.831,34.831,0,0,0-10.266,7.172,31,31,0,0,0-6.75,10.477,38.647,38.647,0,0,0-2.672,12.656l-.281,5.2h17.156q13.922,0,22.57-.844a60.194,60.194,0,0,0,13.641-2.6q4.992-1.758,6.891-4.641A12.117,12.117,0,0,0,769.226,150.281Zm36.281,4.641q0,21.234-17.3,29.461t-55.547,8.227H707.351a34.04,34.04,0,0,0,14.2,23.273q11.953,8.648,29.25,8.648a111.7,111.7,0,0,0,25.172-3.023,48.324,48.324,0,0,0,22.359-11.6h1.406V222A34.286,34.286,0,0,1,797,235.781a27.1,27.1,0,0,1-9.352,11.109q-6.609,4.781-17.437,7.523t-26.578,2.742A76.581,76.581,0,0,1,690.9,235.922a78.381,78.381,0,0,1-17.156-24.609,77.482,77.482,0,0,1-6.469-32.2,103.367,103.367,0,0,1,5.625-35.086,77.721,77.721,0,0,1,15.68-26.648,67.391,67.391,0,0,1,24.047-16.8,79.045,79.045,0,0,1,30.727-5.836,66.364,66.364,0,0,1,23.273,4.148,61.585,61.585,0,0,1,19.828,11.883A57.463,57.463,0,0,1,800.3,129.75,59.263,59.263,0,0,1,805.508,154.922Zm161.48,98.719q-12.938,0-20.6-7.172a23.776,23.776,0,0,1-7.664-18.141V166.734q0-19.969-8.156-28.9t-23.2-8.93q-12.656,0-20.391,9.07t-7.734,25.8v89.859H867.707q-12.375,0-19.758-7.172a24.219,24.219,0,0,1-7.383-18.141V161.25a72.608,72.608,0,0,1,4.219-24.328,63.327,63.327,0,0,1,12.656-21.375,60.741,60.741,0,0,1,21.727-15.117q13.289-5.7,31.43-5.7a74.645,74.645,0,0,1,25.875,4.43,59.412,59.412,0,0,1,21.164,13.219,63.892,63.892,0,0,1,14.414,21.586q5.344,12.8,5.344,29.25v90.422Zm127.59-21.937q0,12.656-5.344,18t-17.719,5.344q-22.5,0-34.453-12.375t-11.953-36V101.625h10.969q12.938,0,20.25,7.031t7.313,21.656v72.7q0,11.813,5.344,16.1t18.281,4.289h7.313Zm-27.7-167.344a21.9,21.9,0,0,1-6.75,16.031,21.9,21.9,0,0,1-16.031,6.75,21.513,21.513,0,0,1-15.82-6.75,22.015,22.015,0,0,1-6.68-16.031,21.393,21.393,0,0,1,6.68-15.75A21.736,21.736,0,0,1,1044.093,42a22.133,22.133,0,0,1,16.031,6.609A21.285,21.285,0,0,1,1066.875,64.359Zm157.4,114.469q0-23.344-8.93-36.492t-27.914-13.148q-16.735,0-25.031,12.375t-8.3,31.781q0,23.2,8.789,36.211t28.055,13.008q17.016,0,25.172-12.375T1224.277,178.828Zm-110.25,0a106.359,106.359,0,0,1,4.922-32.836,76.453,76.453,0,0,1,14.7-26.648,69.612,69.612,0,0,1,24.188-18q14.414-6.609,33.117-6.609,17.578,0,31.219,6.469a68.589,68.589,0,0,1,22.992,17.367,76.846,76.846,0,0,1,14.273,25.031,89.781,89.781,0,0,1,4.922,29.742,103.644,103.644,0,0,1-5.062,32.836,78.809,78.809,0,0,1-14.7,26.578,67.883,67.883,0,0,1-24.047,17.859q-14.414,6.539-33.117,6.539-17.578,0-31.219-6.539a70.294,70.294,0,0,1-22.992-17.3,75.226,75.226,0,0,1-14.273-24.891A89.353,89.353,0,0,1,1114.027,178.828ZM1388.148,135.8a91.388,91.388,0,0,0-9.7-3.094,50.811,50.811,0,0,0-12.8-1.406q-12.938,0-19.828,7.594t-6.891,25.453v89.3h-10.687q-12.938,0-20.6-6.328t-7.664-18.422V157.453a82.261,82.261,0,0,1,3.164-22.641,52.453,52.453,0,0,1,10.055-19.406,51.429,51.429,0,0,1,17.859-13.5q10.969-5.2,26.3-5.2a43.017,43.017,0,0,1,15.047,2.32,28.555,28.555,0,0,1,9.914,5.906,22.394,22.394,0,0,1,5.484,8.156,24.78,24.78,0,0,1,1.758,8.93V135.8Z"/><path class="d" d="M45.208-4.174q0-6.192-3.123-8.507T32.339-15H20.332V.564A4.07,4.07,0,0,0,22.189,3.93,7.716,7.716,0,0,0,26.9,5.3h6.192q6.192,0,9.154-2.585A8.692,8.692,0,0,0,45.208-4.174ZM44.023-35.834a7.678,7.678,0,0,0-1.05-4.119,8.045,8.045,0,0,0-2.692-2.692A12.144,12.144,0,0,0,36.539-44.1a19.67,19.67,0,0,0-4.2-.458H26.685a19.54,19.54,0,0,0-3.177.3q-1.777.3-3.285.512v17.069H31.8a16.467,16.467,0,0,0,8.642-2.154Q44.023-30.988,44.023-35.834ZM60.446-4.6a23.3,23.3,0,0,1-2.1,10.123,22.111,22.111,0,0,1-5.681,7.457A24.3,24.3,0,0,1,44.4,17.552a31.45,31.45,0,0,1-9.854,1.535H26.362Q5.309,19.087,5.309,1.1V-53.711q1.346-.431,3.769-1.023T14.3-55.892q2.8-.565,5.734-.888a48.491,48.491,0,0,1,5.25-.323h9.154a33.984,33.984,0,0,1,9.907,1.373,23.848,23.848,0,0,1,7.834,3.958,17.72,17.72,0,0,1,5.115,6.3,18.861,18.861,0,0,1,1.8,8.346,16.129,16.129,0,0,1-3.177,10.284,16.973,16.973,0,0,1-8.83,5.708,15.8,15.8,0,0,1,5.331,2.5A21.394,21.394,0,0,1,56.65-14.62a17.918,17.918,0,0,1,2.8,4.927A14.53,14.53,0,0,1,60.446-4.6Zm63.7,14.538a10.334,10.334,0,0,1-.727,4.038,6.664,6.664,0,0,1-2.531,2.935,13.391,13.391,0,0,1-5.008,1.8,46.206,46.206,0,0,1-8.157.592H99.645q-13.892,0-21-7.431T71.538-10.151v-14q0-5.384.377-11.011t1.077-10.257q.862-6.731,3.9-9.046a12.306,12.306,0,0,1,7.673-2.315h39.468v5.061q0,7.969-10.177,7.969H87.96q-.323,2.1-.485,4.415t-.323,4.684q-.162,2.369-.215,4.577t-.054,3.931h29.076V-20.7q0,3.715-2.261,5.331t-6.892,1.615H86.883v4.415a32.145,32.145,0,0,0,.808,8,9.251,9.251,0,0,0,2.746,4.738,10.617,10.617,0,0,0,4.981,2.315,38.113,38.113,0,0,0,7.457.619h4.846q4.146,0,8.292-.4a75.477,75.477,0,0,0,8.238-1.265Zm62.944-61.975a6.968,6.968,0,0,1-.7,2.881,9.336,9.336,0,0,1-1.911,2.746,10.974,10.974,0,0,1-2.881,2.046,7.84,7.84,0,0,1-3.554.835H164.15v62.3H158.12a9,9,0,0,1-6.569-2.531q-2.585-2.531-2.585-7.592V-43.534H127.213v-4.954a7.922,7.922,0,0,1,.565-2.827,8.011,8.011,0,0,1,1.723-2.692A9.232,9.232,0,0,1,132.355-56a9.521,9.521,0,0,1,4.011-.781h50.721Zm46.36,39.468q-1.023-3.931-2.4-8.184t-2.908-8.292q-1.535-4.038-3.258-7.619t-3.123-6.219q-1.669,2.961-3.311,6.623t-3.2,7.619q-1.561,3.958-2.881,8.05t-2.288,8.023Zm15.669,31.337q-4.738,0-7.242-2.261a8.514,8.514,0,0,1-2.935-5.008,109.53,109.53,0,0,0-2.1-12.007h-30.1q-1.185,4.846-2.127,9.638t-1.8,9.638h-5.869q-3.769,0-5.358-1.885A8.132,8.132,0,0,1,190,11.495a41.52,41.52,0,0,1,1.1-7.942q1.1-5.2,2.988-11.765t4.415-13.73q2.531-7.161,5.384-13.838T209.783-48a48.955,48.955,0,0,1,5.9-8.777h6.192a13.074,13.074,0,0,1,7.646,2.1,14.969,14.969,0,0,1,4.577,4.846,123.657,123.657,0,0,1,5.734,12.573q3.2,7.942,6.3,17.419T251.7-.27a161.026,161.026,0,0,1,3.554,19.034Z" transform="translate(1134.182 57.103)"/></g></g></svg>